<!-- icon666.com - MILLIONS vector ICONS FREE --><svg xmlns="http://www.w3.org/2000/svg" version="1.1" viewBox="1 1 511.99994 511.99994"><g id="surface1"><path d="M 256 0 L 256 61.792969 L 326.621094 61.792969 L 326.621094 185.378906 L 450.207031 185.378906 L 450.207031 326.621094 L 326.621094 326.621094 L 326.621094 450.207031 L 256 450.207031 L 256 512 C 397.386719 512 512 397.382812 512 256 C 512 114.617188 397.382812 0 256 0 Z M 256 0 " style="stroke: none; fill-rule: nonzero; fill-opacity: 1; fill: rgb(56, 102, 86);" fill="rgb(58.823529%,78.431373%,93.72549%)"></path><path d="M 185.378906 450.207031 L 185.378906 326.621094 L 61.792969 326.621094 L 61.792969 185.378906 L 185.378906 185.378906 L 185.378906 61.792969 L 256 61.792969 L 256 0 C 114.617188 0 0 114.617188 0 256 C 0 397.382812 114.617188 512 256 512 L 256 450.207031 Z M 185.378906 450.207031 " style="stroke: none; fill-rule: nonzero; fill-opacity: 1; fill: rgb(56, 102, 86);" fill="rgb(47.058824%,72.54902%,92.156863%)"></path><path d="M 326.621094 185.378906 L 326.621094 61.792969 L 256 61.792969 L 256 450.207031 L 326.621094 450.207031 L 326.621094 326.621094 L 450.207031 326.621094 L 450.207031 185.378906 Z M 326.621094 185.378906 " style="stroke: none; fill-rule: nonzero; fill-opacity: 1; fill: rgb(214, 179, 0);" fill="rgb(80.392157%,16.470588%,0%)"></path><path d="M 185.378906 61.792969 L 185.378906 185.378906 L 61.792969 185.378906 L 61.792969 326.621094 L 185.378906 326.621094 L 185.378906 450.207031 L 256 450.207031 L 256 61.792969 Z M 185.378906 61.792969 " style="stroke: none; fill-rule: nonzero; fill-opacity: 1; fill: rgb(214, 179, 0);" fill="rgb(67.058824%,13.72549%,0%)"></path></g></svg>